<?xml version="1.0" encoding="UTF-8"?>
<svg id="Reference" xmlns="http://www.w3.org/2000/svg" viewBox="0 0 2837.78 1387.16">
  <defs>
    <style>
      .cls-1 {
        fill: #f6f7fb;
      }

      .cls-2 {
        fill: none;
        stroke: #f6f7fb;
        stroke-linecap: round;
        stroke-miterlimit: 10;
        stroke-width: 9px;
      }
    </style>
  </defs>
  <path class="cls-2" d="M2661.6,1233.56c0,1.9-.19,3.75-.56,5.54-.37,1.79-.91,3.52-1.6,5.16s-1.55,3.21-2.54,4.67c-.99,1.46-2.11,2.83-3.36,4.07-1.24,1.24-2.61,2.37-4.07,3.36-1.46.99-3.03,1.84-4.67,2.54-1.65.7-3.37,1.24-5.16,1.6-1.79.37-3.64.56-5.54.56s-3.75-.19-5.54-.56-3.52-.91-5.16-1.6-3.21-1.55-4.67-2.54c-1.46-.99-2.83-2.11-4.07-3.36s-2.37-2.61-3.36-4.07c-.99-1.46-1.84-3.03-2.54-4.67s-1.24-3.37-1.6-5.16c-.37-1.79-.56-3.64-.56-5.54s.19-3.75.56-5.54c.37-1.79.91-3.52,1.6-5.16s1.55-3.21,2.54-4.67c.99-1.46,2.11-2.83,3.36-4.07s2.61-2.37,4.07-3.36c1.46-.99,3.03-1.84,4.67-2.54s3.37-1.24,5.16-1.6,3.64-.56,5.54-.56,3.75.19,5.54.56c1.17.24,2.31.55,3.43.94"/>
  <polygon class="cls-1" points="2632.75 1216.27 2656.91 1218.18 2646.49 1196.3 2632.75 1216.27"/>
</svg>